<svg xmlns="http://www.w3.org/2000/svg" viewBox="0 0 235.62 61.87"><defs><style>.cls-1,.cls-10{font-size:5.72px;fill:#010101;font-family:Montserrat-ExtraLight, Montserrat;font-weight:200;}.cls-1{letter-spacing:0.05em;}.cls-2{letter-spacing:0.04em;}.cls-3{letter-spacing:0.05em;}.cls-4{letter-spacing:0.03em;}.cls-5{letter-spacing:0.03em;}.cls-6{letter-spacing:0.04em;}.cls-7{letter-spacing:0.05em;}.cls-8{letter-spacing:0.05em;}.cls-9{letter-spacing:0.04em;}.cls-10{letter-spacing:0.25em;}.cls-11{letter-spacing:0.23em;}.cls-12{letter-spacing:0.23em;}.cls-13{letter-spacing:0.25em;}.cls-14{letter-spacing:0.22em;}.cls-15{font-size:30.69px;font-family:Montserrat-Bold, Montserrat;font-weight:700;}.cls-15,.cls-19{fill:#56b365;}.cls-16{letter-spacing:-0.01em;}.cls-17{letter-spacing:-0.02em;}.cls-18{fill:#2a3180;}.cls-20{fill:#1f71b8;}.cls-21{fill:#39a8e0;}.cls-22{fill:#f29104;}.cls-23{fill:none;stroke:#1b1b1b;stroke-miterlimit:10;stroke-width:0.31px;opacity:0.3;}</style></defs><g id="Layer_2" data-name="Layer 2"><g id="Layer_1-2" data-name="Layer 1"><text class="cls-1" transform="translate(67.65 43.51)">GRASSRO<tspan class="cls-2" x="30.43" y="0">O</tspan><tspan class="cls-3" x="35.47" y="0">T A</tspan><tspan class="cls-4" x="44.98" y="0">DV</tspan><tspan x="53.95" y="0">O</tspan><tspan class="cls-5" x="59.04" y="0">C</tspan><tspan class="cls-6" x="63.31" y="0">A</tspan><tspan class="cls-5" x="67.54" y="0">C</tspan><tspan class="cls-3" x="71.81" y="0">Y </tspan><tspan class="cls-6" x="77.38" y="0">F</tspan><tspan class="cls-3" x="81.23" y="0">OR </tspan><tspan class="cls-2" x="92.48" y="0">P</tspan><tspan class="cls-3" x="96.8" y="0">E</tspan><tspan class="cls-6" x="100.92" y="0">A</tspan><tspan class="cls-7" x="105.15" y="0">CE AND </tspan><tspan class="cls-8" x="131.42" y="0">E</tspan><tspan class="cls-9" x="135.52" y="0">C</tspan><tspan x="139.82" y="0">ONOMIC</tspan></text><text class="cls-10" transform="translate(67.84 51.59)">EMP<tspan class="cls-11" x="17.65" y="0">O</tspan><tspan class="cls-12" x="23.75" y="0">W</tspan><tspan x="31.31" y="0" xml:space="preserve">ERMENT OF  </tspan><tspan class="cls-11" x="84.82" y="0">W</tspan><tspan class="cls-13" x="92.35" y="0">OMEN AND </tspan><tspan class="cls-14" x="140.21" y="0">Y</tspan><tspan x="144.99" y="0">O</tspan><tspan class="cls-12" x="151.21" y="0">U</tspan><tspan x="157.09" y="0">TH</tspan></text><text class="cls-15" transform="translate(68.27 35.15)">GA<tspan class="cls-16" x="47.17" y="0">P</tspan><tspan x="69.33" y="0">E</tspan><tspan class="cls-16" x="89.92" y="0">E</tspan><tspan class="cls-17" x="110.2" y="0">W</tspan><tspan x="145.13" y="0">Y</tspan></text><path class="cls-18" d="M15,30.78l-.23-.25-.21-.25L14.36,30l-.2-.25a1.47,1.47,0,0,0-.1-.13L14,29.52l-.18-.24,0,0,0,0-.06-.08-.1-.15-.11-.16,0-.05a18.13,18.13,0,0,0-3.71,2.06l.06.11,0,0v0l0,0,.05.08.09.16.1.16.05.08,0,0,0,0,.24.37.13.19.12.17.26.34.25.33.15.19a11.65,11.65,0,0,1,3.73-2.35Z"/><path class="cls-19" d="M30.77,52a17.12,17.12,0,0,0-.86-5.24c-.08-.23-.15-.46-.24-.69l-.14-.34a3.45,3.45,0,0,0-.14-.34L29.24,45a3.54,3.54,0,0,0-.16-.34,3.59,3.59,0,0,0-.17-.34L28.74,44c-.12-.23-.25-.45-.39-.67l-.09-.17L28.14,43l-.22-.35-.06-.08-.05-.08-.1-.14-.21-.29-.26-.34L27,41.41a24.38,24.38,0,0,0-2.13-2.3l-.58-.53-.58-.52-.6-.5-.29-.25-.3-.24-1.2-1-.6-.46-.6-.46L19,34.29c-.39-.3-.77-.61-1.13-.91s-.73-.61-1.09-.92-.69-.63-1-.95h0l-.23-.23L15.25,31l-.12-.12,0,0a11.65,11.65,0,0,0-3.73,2.35l.12.14L12,34c.19.22.39.43.59.64.39.4.78.77,1.18,1.14s.81.72,1.22,1.06c.83.68,1.66,1.31,2.48,1.91.41.31.82.6,1.22.89l.6.44.58.43.29.22.29.22c.19.14.38.28.56.43l.55.43.53.44A24,24,0,0,1,24,44l.22.24.11.11.05.06,0,0h0s0,0,0,0l.23.27.11.13.06.07,0,.05.18.22.09.11.09.13c.12.16.25.32.36.49l.17.25a2.26,2.26,0,0,1,.16.26l.16.25.15.26c.05.09.11.17.15.26l.14.26c.1.17.18.35.27.53a17.17,17.17,0,0,1,1.41,4.26,16.58,16.58,0,0,1,.28,2,17.06,17.06,0,0,1,.05,1.87,14.3,14.3,0,0,1-.11,1.66c0,.25-.06.5-.1.74l-.05.34c0,.12-.05.22-.07.33l-.06.31-.06.3-.07.27-.06.26c-.09.33-.18.61-.24.84l-.23.7.12-.14.14-.19a3.11,3.11,0,0,0,.2-.25l.23-.33.07-.1.06-.1.14-.21.15-.24.14-.25.16-.28.15-.29c.06-.11.11-.21.16-.32l.16-.34c.11-.23.21-.48.31-.74l.15-.4c.05-.14.1-.28.14-.42l.14-.45c0-.15.08-.3.13-.46l.06-.24.05-.24.06-.25,0-.13,0-.12.09-.53.08-.54A17.32,17.32,0,0,0,30.77,52Z"/><path class="cls-19" d="M8,26.76l0,.1h0a18.47,18.47,0,0,1,3.62-1.71l0-.16a16.56,16.56,0,0,1-.74-4.82V19c0-.1,0-.19,0-.29l0-.29,0-.28L11,18l0-.14.07-.56.1-.54c0-.19.07-.36.11-.54s.07-.35.12-.52l.13-.51.15-.49.08-.25.08-.24.16-.47c.24-.6.47-1.19.74-1.71a18.49,18.49,0,0,1,1.58-2.66l.19-.26a2.5,2.5,0,0,1,.18-.24l.34-.44.3-.36.14-.16.12-.15.49-.55-.65.35L14.71,8l-.47.33L14,8.55l-.27.2a16.2,16.2,0,0,0-2.37,2.35l-.15.19-.16.2-.3.41-.16.21-.14.23-.3.45-.29.48-.15.25-.13.25-.28.53L9,14.85c-.09.18-.17.37-.25.56s-.16.39-.23.59l-.22.61-.19.63-.05.16,0,.17L8,17.89l-.09.33a3.4,3.4,0,0,1-.07.34l-.07.34,0,.17,0,.18-.11.7a18,18,0,0,0,.27,6Z"/><path class="cls-20" d="M3.33,46.56a18,18,0,0,1,33.25-9.7A19,19,0,1,0,11.67,61.78,18,18,0,0,1,3.33,46.56Z"/><circle class="cls-21" cx="18.29" cy="18.33" r="3.65"/><polygon class="cls-22" points="23.55 0.82 22.43 2.63 23.8 4.25 21.74 3.74 20.62 5.55 20.46 3.43 18.4 2.93 20.36 2.12 20.21 0 21.58 1.62 23.55 0.82"/><polygon class="cls-22" points="22.57 9.54 21.94 10.56 22.71 11.47 21.55 11.19 20.92 12.21 20.83 11.01 19.67 10.73 20.78 10.28 20.69 9.08 21.46 10 22.57 9.54"/><polygon class="cls-22" points="11.34 1.75 10.75 2.7 11.47 3.55 10.38 3.29 9.79 4.24 9.71 3.12 8.63 2.85 9.66 2.43 9.58 1.32 10.3 2.17 11.34 1.75"/><line class="cls-23" x1="51.46" y1="3.56" x2="51.46" y2="58.31"/></g></g></svg>